<svg width="74" height="67" viewBox="0 0 74 67" fill="none" xmlns="http://www.w3.org/2000/svg">
<path d="M38.915 37.4507C38.915 36.73 38.7129 36.1587 38.3086 35.7368C37.9131 35.3062 37.2363 34.9106 36.2783 34.5503C35.3203 34.1899 34.4941 33.834 33.7998 33.4824C33.1055 33.1221 32.5078 32.7134 32.0068 32.2563C31.5146 31.7905 31.1279 31.2456 30.8467 30.6216C30.5742 29.9976 30.438 29.2549 30.438 28.3936C30.438 26.9082 30.9126 25.6909 31.8618 24.7417C32.811 23.7925 34.0723 23.2388 35.6455 23.0806V20.2593H37.7549V23.1201C39.3105 23.3398 40.5278 23.9902 41.4067 25.0713C42.2856 26.1436 42.7251 27.5366 42.7251 29.2505H38.915C38.915 28.1958 38.6953 27.4092 38.2559 26.8906C37.8252 26.3633 37.2451 26.0996 36.5156 26.0996C35.7949 26.0996 35.2368 26.3062 34.8413 26.7192C34.4458 27.1235 34.248 27.686 34.248 28.4067C34.248 29.0747 34.4414 29.6108 34.8281 30.0151C35.2148 30.4194 35.9312 30.8325 36.9771 31.2544C38.0317 31.6763 38.8975 32.0762 39.5742 32.4541C40.251 32.8232 40.8223 33.2451 41.2881 33.7197C41.7539 34.1855 42.1099 34.7217 42.356 35.3281C42.6021 35.9258 42.7251 36.6245 42.7251 37.4243C42.7251 38.9185 42.2593 40.1313 41.3276 41.063C40.396 41.9946 39.1128 42.5439 37.478 42.7109V45.3345H35.3818V42.7241C33.5801 42.5308 32.1826 41.8936 31.1895 40.8125C30.2051 39.7227 29.7129 38.2769 29.7129 36.4751H33.5229C33.5229 37.521 33.769 38.3252 34.2612 38.8877C34.7622 39.4414 35.4785 39.7183 36.4102 39.7183C37.1836 39.7183 37.7944 39.5161 38.2427 39.1118C38.6909 38.6987 38.915 38.145 38.915 37.4507Z" fill="#FF5000"/>
<path fill-rule="evenodd" clip-rule="evenodd" d="M35.9399 1.01868C42.6453 0.791275 49.2568 2.64471 54.8669 6.32459C60.477 10.0045 64.8107 15.3304 67.2732 21.5715C67.5773 22.3421 67.1991 23.2133 66.4285 23.5173C65.6579 23.8214 64.7867 23.4432 64.4826 22.6726C62.2474 17.0076 58.3137 12.1733 53.2215 8.83309C48.1293 5.49289 42.1281 3.81054 36.0416 4.01696C29.9551 4.22337 24.0817 6.30843 19.2275 9.98595C14.3732 13.6635 10.7761 18.7532 8.92981 24.5566C8.67866 25.346 7.83509 25.7824 7.04565 25.5312C6.25621 25.2801 5.81985 24.4365 6.071 23.6471C8.10504 17.2535 12.068 11.6462 17.4159 7.59469C22.7637 3.54318 29.2345 1.24609 35.9399 1.01868Z" fill="#FF5000"/>
<path fill-rule="evenodd" clip-rule="evenodd" d="M37.0605 65.583C30.3551 65.8104 23.7436 63.957 18.1335 60.2771C12.5234 56.5972 8.18968 51.2713 5.72716 45.0302C5.4231 44.2596 5.80131 43.3884 6.57192 43.0844C7.34253 42.7803 8.21373 43.1585 8.51779 43.9291C10.753 49.5941 14.6867 54.4284 19.7789 57.7686C24.8711 61.1088 30.8723 62.7912 36.9588 62.5847C43.0453 62.3783 48.9187 60.2933 53.7729 56.6158C58.6272 52.9382 62.2243 47.8485 64.0706 42.0451C64.3217 41.2557 65.1653 40.8193 65.9547 41.0705C66.7442 41.3216 67.1805 42.1652 66.9294 42.9546C64.8954 49.3482 60.9324 54.9555 55.5845 59.007C50.2367 63.0585 43.7659 65.3556 37.0605 65.583Z" fill="#FF5000"/>
<path fill-rule="evenodd" clip-rule="evenodd" d="M66.5 24C64.567 24 63 25.567 63 27.5C63 29.433 64.567 31 66.5 31C68.433 31 70 29.433 70 27.5C70 25.567 68.433 24 66.5 24ZM60 27.5C60 23.9101 62.9101 21 66.5 21C70.0899 21 73 23.9101 73 27.5C73 31.0899 70.0899 34 66.5 34C62.9101 34 60 31.0899 60 27.5Z" fill="#FF5000"/>
<path fill-rule="evenodd" clip-rule="evenodd" d="M7.5 36C5.567 36 4 37.567 4 39.5C4 41.433 5.567 43 7.5 43C9.433 43 11 41.433 11 39.5C11 37.567 9.433 36 7.5 36ZM1 39.5C1 35.9101 3.91015 33 7.5 33C11.0899 33 14 35.9101 14 39.5C14 43.0899 11.0899 46 7.5 46C3.91015 46 1 43.0899 1 39.5Z" fill="#FF5000"/>
</svg>
