<svg width="39" height="59" viewBox="0 0 39 59" fill="none" xmlns="http://www.w3.org/2000/svg">
<g clip-path="url(#clip0_325_63)">
<mask id="mask0_325_63" style="mask-type:luminance" maskUnits="userSpaceOnUse" x="0" y="0" width="39" height="59">
<path d="M38.5 0.5H0.5V58.5H38.5V0.5Z" fill="white"/>
</mask>
<g mask="url(#mask0_325_63)">
<path fill-rule="evenodd" clip-rule="evenodd" d="M9.5 33.5C10.3284 33.5 11 34.1716 11 35V54.6801L18 51.5301V37.5C18 36.6716 18.6716 36 19.5 36C20.3284 36 21 36.6716 21 37.5V51.5301L28 54.6801V35C28 34.1716 28.6716 33.5 29.5 33.5C30.3284 33.5 31 34.1716 31 35V57C31 57.509 30.7419 57.9833 30.3145 58.2596C29.887 58.536 29.3486 58.5768 28.8845 58.3679L19.5 54.1449L10.1156 58.3679C9.65139 58.5768 9.11297 58.536 8.68554 58.2596C8.25812 57.9833 8 57.509 8 57V35C8 34.1716 8.67157 33.5 9.5 33.5Z" fill="#FF5000"/>
<path fill-rule="evenodd" clip-rule="evenodd" d="M19.5 35.5C28.3366 35.5 35.5 28.3366 35.5 19.5C35.5 10.6634 28.3366 3.5 19.5 3.5C10.6634 3.5 3.5 10.6634 3.5 19.5C3.5 28.3366 10.6634 35.5 19.5 35.5ZM19.5 38.5C29.9934 38.5 38.5 29.9934 38.5 19.5C38.5 9.00659 29.9934 0.5 19.5 0.5C9.00659 0.5 0.5 9.00659 0.5 19.5C0.5 29.9934 9.00659 38.5 19.5 38.5Z" fill="#FF5000"/>
<path d="M19.0247 12.9636C19.1744 12.503 19.8261 12.503 19.9758 12.9636L21.1841 16.6825C21.251 16.8885 21.443 17.028 21.6596 17.028H25.5699C26.0542 17.028 26.2556 17.6478 25.8638 17.9325L22.7003 20.2308C22.5251 20.3582 22.4517 20.5839 22.5187 20.7899L23.727 24.5087C23.8767 24.9694 23.3494 25.3524 22.9576 25.0677L19.7941 22.7694C19.6189 22.642 19.3816 22.642 19.2064 22.7694L16.0429 25.0677C15.6511 25.3524 15.1238 24.9694 15.2735 24.5087L16.4818 20.7899C16.5488 20.5839 16.4754 20.3582 16.3002 20.2308L13.1367 17.9325C12.7449 17.6478 12.9463 17.028 13.4306 17.028H17.3409C17.5575 17.028 17.7495 16.8885 17.8164 16.6825L19.0247 12.9636Z" fill="#FF5000"/>
</g>
</g>
<defs>
<clipPath id="clip0_325_63">
<rect width="38" height="58" fill="white" transform="translate(0.5 0.5)"/>
</clipPath>
</defs>
</svg>
