<svg width="59" height="42" viewBox="0 0 59 42" fill="none" xmlns="http://www.w3.org/2000/svg">
<g clip-path="url(#clip0_325_43)">
<path d="M31.4434 29.1338C31.4434 28.6533 31.3086 28.2725 31.0391 27.9912C30.7754 27.7041 30.3242 27.4404 29.6855 27.2002C29.0469 26.96 28.4961 26.7227 28.0332 26.4883C27.5703 26.248 27.1719 25.9756 26.8379 25.6709C26.5098 25.3604 26.252 24.9971 26.0645 24.5811C25.8828 24.165 25.792 23.6699 25.792 23.0957C25.792 22.1055 26.1084 21.2939 26.7412 20.6611C27.374 20.0283 28.2148 19.6592 29.2637 19.5537V17.6729H30.6699V19.5801C31.707 19.7266 32.5186 20.1602 33.1045 20.8809C33.6904 21.5957 33.9834 22.5244 33.9834 23.667H31.4434C31.4434 22.9639 31.2969 22.4395 31.0039 22.0938C30.7168 21.7422 30.3301 21.5664 29.8438 21.5664C29.3633 21.5664 28.9912 21.7041 28.7275 21.9795C28.4639 22.249 28.332 22.624 28.332 23.1045C28.332 23.5498 28.4609 23.9072 28.7188 24.1768C28.9766 24.4463 29.4541 24.7217 30.1514 25.0029C30.8545 25.2842 31.4316 25.5508 31.8828 25.8027C32.334 26.0488 32.7148 26.3301 33.0254 26.6465C33.3359 26.957 33.5732 27.3145 33.7373 27.7188C33.9014 28.1172 33.9834 28.583 33.9834 29.1162C33.9834 30.1123 33.6729 30.9209 33.0518 31.542C32.4307 32.1631 31.5752 32.5293 30.4854 32.6406V34.3896H29.0879V32.6494C27.8867 32.5205 26.9551 32.0957 26.293 31.375C25.6367 30.6484 25.3086 29.6846 25.3086 28.4834H27.8486C27.8486 29.1807 28.0127 29.7168 28.3408 30.0918C28.6748 30.4609 29.1523 30.6455 29.7734 30.6455C30.2891 30.6455 30.6963 30.5107 30.9951 30.2412C31.2939 29.9658 31.4434 29.5967 31.4434 29.1338Z" fill="#FF5000"/>
<path fill-rule="evenodd" clip-rule="evenodd" d="M1 12.5C1 11.6716 1.67157 11 2.5 11H56.5C57.3284 11 58 11.6716 58 12.5V39.5C58 40.3284 57.3284 41 56.5 41H2.5C1.67157 41 1 40.3284 1 39.5V12.5ZM4 14V38H55V14H4Z" fill="#FF5000"/>
<path fill-rule="evenodd" clip-rule="evenodd" d="M5.5 7C5.5 6.17157 6.17157 5.5 7 5.5H52C52.8284 5.5 53.5 6.17157 53.5 7C53.5 7.82843 52.8284 8.5 52 8.5H7C6.17157 8.5 5.5 7.82843 5.5 7Z" fill="#FF5000"/>
<path fill-rule="evenodd" clip-rule="evenodd" d="M7.5 2C7.5 1.17157 8.17157 0.5 9 0.5H50C50.8284 0.5 51.5 1.17157 51.5 2C51.5 2.82843 50.8284 3.5 50 3.5H9C8.17157 3.5 7.5 2.82843 7.5 2Z" fill="#FF5000"/>
</g>
<defs>
<clipPath id="clip0_325_43">
<rect width="58" height="41" fill="white" transform="translate(0.5 0.5)"/>
</clipPath>
</defs>
</svg>
