<svg width="66" height="66" viewBox="0 0 66 66" fill="none" xmlns="http://www.w3.org/2000/svg">
<path fill-rule="evenodd" clip-rule="evenodd" d="M35.5649 5.70155L34.616 5.0947C33.6306 4.46452 32.3688 4.46452 31.3834 5.0947L30.4345 5.70154C28.5973 6.87645 26.3961 7.34435 24.2399 7.01826L23.1262 6.84984C21.9696 6.67494 20.8169 7.18816 20.173 8.16465L19.553 9.10498C18.3525 10.9256 16.5319 12.2484 14.4294 12.8275L13.3435 13.1266C12.2159 13.4372 11.3715 14.3749 11.1805 15.5289L10.9965 16.6401C10.6404 18.7916 9.51514 20.7405 7.83002 22.1247L6.95965 22.8397C6.05581 23.5821 5.66589 24.7821 5.96072 25.914L6.24463 27.004C6.79432 29.1143 6.55908 31.3525 5.58265 33.3024L5.07832 34.3095C4.5546 35.3554 4.68649 36.6103 5.41622 37.5244L6.11892 38.4047C7.47943 40.109 8.17486 42.2493 8.07595 44.4278L8.02486 45.553C7.9718 46.7214 8.60271 47.8142 9.64115 48.3525L10.6411 48.8708C12.5772 49.8744 14.0831 51.5468 14.8788 53.5772L15.2898 54.6259C15.7166 55.7149 16.7374 56.4566 17.905 56.526L19.0294 56.5928C21.2063 56.7221 23.2622 57.6375 24.8149 59.1687L25.6169 59.9595C26.4497 60.7808 27.684 61.0432 28.7789 60.6316L29.8332 60.2354C31.8745 59.4681 34.1249 59.4681 36.1662 60.2354L37.2206 60.6316C38.3155 61.0432 39.5497 60.7808 40.3825 59.9595L41.1845 59.1687C42.7373 57.6375 44.7932 56.7221 46.9701 56.5928L48.0944 56.526C49.2621 56.4566 50.2829 55.7149 50.7097 54.6259L51.1207 53.5772C51.9164 51.5468 53.4222 49.8744 55.3583 48.8708L56.3583 48.3525C57.3967 47.8142 58.0276 46.7214 57.9746 45.553L57.9235 44.4278C57.8246 42.2493 58.52 40.109 59.8805 38.4047L60.5832 37.5244C61.313 36.6103 61.4449 35.3554 60.9211 34.3095L60.4168 33.3024C59.4404 31.3525 59.2051 29.1144 59.7548 27.004L60.0387 25.914C60.3336 24.7821 59.9436 23.5821 59.0398 22.8397L58.1694 22.1247C56.4843 20.7405 55.3591 18.7916 55.0029 16.6401L54.8189 15.5289C54.6279 14.3749 53.7836 13.4372 52.6559 13.1266L51.57 12.8275C49.4676 12.2484 47.6469 10.9256 46.4464 9.10498L45.8264 8.16465C45.1825 7.18816 44.0298 6.67494 42.8733 6.84984L41.7596 7.01826C39.6034 7.34435 37.4021 6.87645 35.5649 5.70155ZM36.2323 2.56734C34.2615 1.30698 31.7379 1.30698 29.7671 2.56734L28.8182 3.17418C27.5934 3.95745 26.1259 4.26938 24.6884 4.05199L23.5748 3.88357C21.2617 3.53376 18.9563 4.56021 17.6685 6.5132L17.0485 7.45353C16.2482 8.66725 15.0344 9.5491 13.6328 9.93518L12.5469 10.2343C10.2915 10.8556 8.60289 12.731 8.2208 15.0389L8.03683 16.1501C7.79938 17.5844 7.04923 18.8837 5.92581 19.8065L5.05545 20.5215C3.24777 22.0063 2.46793 24.4064 3.05759 26.6702L3.3415 27.7602C3.70796 29.1671 3.55113 30.6592 2.90018 31.9591L2.39585 32.9663C1.34841 35.058 1.61219 37.5678 3.07165 39.396L3.77435 40.2763C4.68136 41.4125 5.14498 42.8394 5.07903 44.2917L5.02794 45.4169C4.92184 47.7538 6.18364 49.9394 8.26054 51.0159L9.26053 51.5343C10.5512 52.2033 11.5551 53.3183 12.0856 54.6719L12.4966 55.7206C13.3502 57.8986 15.3918 59.382 17.7271 59.5207L18.8514 59.5875C20.3027 59.6737 21.6733 60.284 22.7085 61.3048L23.5104 62.0956C25.1761 63.7382 27.6446 64.2629 29.8344 63.4398L30.8887 63.0435C32.2496 62.532 33.7499 62.532 35.1107 63.0435L36.1651 63.4398C38.3548 64.2629 40.8233 63.7382 42.489 62.0956L43.291 61.3048C44.3261 60.284 45.6967 59.6737 47.148 59.5875L48.2724 59.5207C50.6076 59.382 52.6492 57.8986 53.5028 55.7206L53.9138 54.6719C54.4443 53.3183 55.4482 52.2033 56.7389 51.5343L57.7389 51.0159C59.8158 49.9394 61.0776 47.7538 60.9715 45.4169L60.9204 44.2917C60.8545 42.8394 61.3181 41.4125 62.2251 40.2763L62.9278 39.396C64.3873 37.5678 64.651 35.058 63.6036 32.9663L63.0993 31.9591C62.4483 30.6592 62.2915 29.1671 62.6579 27.7602L62.9419 26.6702C63.5315 24.4064 62.7517 22.0063 60.944 20.5215L60.0736 19.8065C58.9502 18.8837 58.2001 17.5844 57.9626 16.1501L57.7786 15.0389C57.3966 12.731 55.7079 10.8556 53.4526 10.2343L52.3667 9.93518C50.9651 9.5491 49.7513 8.66725 48.951 7.45353L48.3309 6.5132C47.0432 4.56021 44.7377 3.53376 42.4247 3.88357L41.311 4.05199C39.8735 4.26938 38.406 3.95745 37.1812 3.17418L36.2323 2.56734Z" fill="#FF5000"/>
<path fill-rule="evenodd" clip-rule="evenodd" d="M40.7969 21.2534C41.5133 21.6694 41.7568 22.5874 41.3408 23.3038L27.8472 46.5428C27.4313 47.2592 26.5133 47.5027 25.7969 47.0867C25.0804 46.6708 24.8369 45.7528 25.2529 45.0364L38.7465 21.7974C39.1625 21.081 40.0804 20.8374 40.7969 21.2534Z" fill="#FF5000"/>
<path fill-rule="evenodd" clip-rule="evenodd" d="M26.5 25.8335C25.1193 25.8335 24 26.9528 24 28.3335C24 29.7142 25.1193 30.8335 26.5 30.8335C27.8807 30.8335 29 29.7142 29 28.3335C29 26.9528 27.8807 25.8335 26.5 25.8335ZM21 28.3335C21 25.2959 23.4624 22.8335 26.5 22.8335C29.5376 22.8335 32 25.2959 32 28.3335C32 31.3711 29.5376 33.8335 26.5 33.8335C23.4624 33.8335 21 31.3711 21 28.3335Z" fill="#FF5000"/>
<path fill-rule="evenodd" clip-rule="evenodd" d="M40.5 36.8335C39.2805 36.8335 38 38.0057 38 39.8335C38 41.6613 39.2805 42.8335 40.5 42.8335C41.7195 42.8335 43 41.6613 43 39.8335C43 38.0057 41.7195 36.8335 40.5 36.8335ZM35 39.8335C35 36.6908 37.3012 33.8335 40.5 33.8335C43.6988 33.8335 46 36.6908 46 39.8335C46 42.9762 43.6988 45.8335 40.5 45.8335C37.3012 45.8335 35 42.9762 35 39.8335Z" fill="#FF5000"/>
</svg>
