<svg width="67" height="61" viewBox="0 0 67 61" fill="none" xmlns="http://www.w3.org/2000/svg">
<g clip-path="url(#clip0_325_37)">
<path fill-rule="evenodd" clip-rule="evenodd" d="M22.2504 1.6835C24.274 2.31486 26.3504 3.72826 28.0612 5.43921C30.2366 7.61494 32.3346 11.2126 34.3116 14.7715C34.5939 15.2797 34.5571 15.9053 34.2172 16.377C33.8772 16.8486 33.2953 17.0814 32.7239 16.9742C32.3416 16.9025 31.8029 16.8194 31.1685 16.7216C29.9355 16.5313 28.3409 16.2853 26.8291 15.9589C24.4519 15.4455 21.7687 14.6483 19.6683 13.2479C17.9863 12.1265 16.5148 10.5446 15.75 8.78539C14.9686 6.988 14.8905 4.86158 16.3292 3.0629C17.8788 1.1255 20.2327 1.054 22.2504 1.6835ZM21.3569 4.54735C19.9223 4.09979 19.1219 4.37418 18.6719 4.9368C18.111 5.63813 18.0328 6.51171 18.5013 7.58931C18.9864 8.70512 20.0145 9.87311 21.3324 10.7518C22.9529 11.8322 25.1864 12.535 27.4623 13.0265C28.4344 13.2364 29.3296 13.3937 30.1541 13.5264C28.6946 11.0336 27.2955 8.91633 25.9397 7.56041C24.4591 6.07963 22.7854 4.99304 21.3569 4.54735Z" fill="#FF5000"/>
<path fill-rule="evenodd" clip-rule="evenodd" d="M44.734 1.36188C42.6399 2.00468 40.4839 3.4467 38.7037 5.19842C36.4409 7.42497 34.2561 11.1102 32.1938 14.7626C31.9075 15.2698 31.9406 15.897 32.2789 16.3712C32.6171 16.8454 33.1993 17.0809 33.7721 16.9752C34.1761 16.9007 34.7409 16.815 35.4045 16.7143C36.6879 16.5196 38.341 16.2687 39.9161 15.9341C42.391 15.4082 45.1771 14.593 47.3558 13.1639C49.1006 12.0194 50.629 10.4035 51.4237 8.60498C52.2368 6.76484 52.3155 4.59059 50.8247 2.75687C49.2308 0.796311 46.817 0.722486 44.734 1.36188ZM45.6144 4.22981C47.1308 3.76434 48.0058 4.04533 48.4969 4.64933C49.091 5.38018 49.1697 6.28339 48.6796 7.39246C48.1712 8.54321 47.0933 9.74825 45.7104 10.6554C44.0094 11.7711 41.6691 12.4947 39.2926 12.9996C38.2348 13.2243 37.261 13.3909 36.3678 13.5312C37.9041 10.9446 39.3781 8.74356 40.8078 7.3368C42.355 5.81439 44.1091 4.69187 45.6144 4.22981Z" fill="#FF5000"/>
<path fill-rule="evenodd" clip-rule="evenodd" d="M3.5 17.5V21.5H63.5V17.5H3.5ZM2.5 14.5C1.39543 14.5 0.5 15.3954 0.5 16.5V22.5C0.5 23.6046 1.39543 24.5 2.5 24.5H64.5C65.6046 24.5 66.5 23.6046 66.5 22.5V16.5C66.5 15.3954 65.6046 14.5 64.5 14.5H2.5Z" fill="#FF5000"/>
<path fill-rule="evenodd" clip-rule="evenodd" d="M60.5 24.5H6.5V57.5H60.5V24.5ZM3.5 21.5V58.5C3.5 59.6046 4.39543 60.5 5.5 60.5H61.5C62.6046 60.5 63.5 59.6046 63.5 58.5V21.5H3.5Z" fill="#FF5000"/>
<path fill-rule="evenodd" clip-rule="evenodd" d="M35 16V59.5H32V16H35Z" fill="#FF5000"/>
</g>
<defs>
<clipPath id="clip0_325_37">
<rect width="66" height="60" fill="white" transform="translate(0.5 0.5)"/>
</clipPath>
</defs>
</svg>
