<svg width="60" height="55" viewBox="0 0 60 55" fill="none" xmlns="http://www.w3.org/2000/svg">
<g clip-path="url(#clip0_325_34)">
<path d="M33.0977 37.0469C33.0977 36.3828 32.8867 35.8359 32.4648 35.4062C32.043 34.9688 31.3398 34.5781 30.3555 34.2344C29.3711 33.8828 28.6055 33.5586 28.0586 33.2617C26.2383 32.2852 25.3281 30.8398 25.3281 28.9258C25.3281 27.6289 25.7227 26.5625 26.5117 25.7266C27.3008 24.8906 28.3711 24.3945 29.7227 24.2383V21.6836H31.5977V24.2617C32.957 24.457 34.0078 25.0352 34.75 25.9961C35.4922 26.9492 35.8633 28.1914 35.8633 29.7227H33.0273C33.0273 28.7383 32.8047 27.9648 32.3594 27.4023C31.9219 26.832 31.3242 26.5469 30.5664 26.5469C29.8164 26.5469 29.2305 26.75 28.8086 27.1562C28.3867 27.5625 28.1758 28.1445 28.1758 28.9023C28.1758 29.582 28.3828 30.1289 28.7969 30.543C29.2188 30.9492 29.9297 31.3359 30.9297 31.7031C31.9297 32.0703 32.7148 32.4102 33.2852 32.7227C33.8555 33.0352 34.3359 33.3945 34.7266 33.8008C35.1172 34.1992 35.418 34.6602 35.6289 35.1836C35.8398 35.707 35.9453 36.3203 35.9453 37.0234C35.9453 38.3438 35.5391 39.4141 34.7266 40.2344C33.9219 41.0547 32.7969 41.5391 31.3516 41.6875V43.9727H29.4883V41.6992C27.9414 41.5273 26.75 40.9727 25.9141 40.0352C25.0859 39.0977 24.6719 37.8555 24.6719 36.3086H27.5195C27.5195 37.293 27.7656 38.0547 28.2578 38.5938C28.7578 39.1328 29.4609 39.4023 30.3672 39.4023C31.2578 39.4023 31.9336 39.1875 32.3945 38.7578C32.8633 38.3281 33.0977 37.7578 33.0977 37.0469Z" fill="#FF5000"/>
<path fill-rule="evenodd" clip-rule="evenodd" d="M11.5 0.5C12.3284 0.5 13 1.17157 13 2V5H47V2C47 1.17157 47.6716 0.5 48.5 0.5C49.3284 0.5 50 1.17157 50 2V5H54.5C56.9853 5 59 7.01472 59 9.5V49.5C59 51.9853 56.9853 54 54.5 54H5.5C3.01472 54 1 51.9853 1 49.5V9.5C1 7.01472 3.01472 5 5.5 5H10V2C10 1.17157 10.6716 0.5 11.5 0.5ZM5.5 8C4.67157 8 4 8.67157 4 9.5V14.5H56V9.5C56 8.67157 55.3284 8 54.5 8H5.5ZM56 17.5H7.40332L23.3392 28.2567C24.0259 28.7202 24.2068 29.6526 23.7433 30.3392C23.2798 31.0259 22.3474 31.2068 21.6608 30.7433L4 18.8222V49.5C4 50.3284 4.67157 51 5.5 51H53.4551L37.7118 41.2762C37.0069 40.8409 36.7885 39.9166 37.2238 39.2118C37.6591 38.5069 38.5834 38.2885 39.2882 38.7238L56 49.0458V17.5Z" fill="#FF5000"/>
</g>
<defs>
<clipPath id="clip0_325_34">
<rect width="59" height="54" fill="white" transform="translate(0.5 0.5)"/>
</clipPath>
</defs>
</svg>
