<svg width="67" height="77" viewBox="0 0 67 77" fill="none" xmlns="http://www.w3.org/2000/svg">
<g clip-path="url(#clip0_325_48)">
<path fill-rule="evenodd" clip-rule="evenodd" d="M35.8769 4.14467C34.7172 3.33285 33.1816 3.29864 31.9887 4.05775L31.7566 4.20547C30.6957 4.88056 30.0785 6.07286 30.1398 7.32882L30.8847 22.6005C30.9783 24.5177 30.2196 26.3783 28.8121 27.6834L4.62021 50.1159C3.90594 50.7782 3.5 51.7082 3.5 52.6823V52.9999C3.5 53.8283 4.17157 54.4999 5 54.4999H6.85459C7.60272 54.4999 8.33115 54.2602 8.93307 53.8159L25.5769 41.5312C27.835 39.8645 31.038 41.4002 31.1525 44.2045L31.941 63.5244C31.9959 64.8677 31.4472 66.1651 30.4453 67.0616L24.926 71.9999H25.6016L25.6632 71.9647C28.07 70.5894 31.0849 70.8935 33.17 72.7179C33.3592 72.8835 33.6415 72.8829 33.8293 72.7186L34.1348 72.4513C36.0226 70.7994 38.6925 70.3813 40.995 71.377L42.4354 71.9999H42.574L37.0547 67.0616C36.0528 66.1651 35.5041 64.8677 35.559 63.5244L36.3454 44.2576C36.4606 41.4349 39.7 39.9047 41.9533 41.6085L58.0666 53.7917C58.6744 54.2512 59.4155 54.4999 60.1775 54.4999H61.5C62.3284 54.4999 63 53.8283 63 52.9999V52.6275C63 51.6759 62.6125 50.7653 61.9268 50.1055L38.5978 27.6568C37.2449 26.355 36.5211 24.5317 36.6125 22.6564L37.3673 7.18369C37.4259 5.98324 36.8626 4.83468 35.8769 4.14467ZM30.3781 1.52677C32.5955 0.115677 35.4455 0.180701 37.5973 1.68698C39.4263 2.96731 40.4726 5.09852 40.3637 7.32986L39.609 22.8026C39.5597 23.8124 39.9495 24.7941 40.678 25.4951L43.7273 28.4294V27.4999C43.7273 26.6715 44.3988 25.9999 45.2273 25.9999C46.0557 25.9999 46.7273 26.6715 46.7273 27.4999V31.3161L53.3636 37.7021V36.4999C53.3636 35.6715 54.0352 34.9999 54.8636 34.9999C55.6921 34.9999 56.3636 35.6715 56.3636 36.4999V40.5889L64.007 47.9438C65.2804 49.1692 66 50.8602 66 52.6275V52.9999C66 55.4852 63.9853 57.4999 61.5 57.4999H60.1775C58.7624 57.4999 57.386 57.0381 56.2573 56.1847L40.144 44.0015C39.8221 43.7581 39.3593 43.9767 39.3429 44.3799L38.5565 63.6468C38.5382 64.0946 38.7211 64.527 39.055 64.8258L45.5496 70.6368C47.2598 72.1669 46.1774 74.9999 43.8826 74.9999H42.125C41.9202 74.9999 41.7176 74.958 41.5296 74.8767L39.8042 74.1306C38.5645 73.5944 37.1268 73.8196 36.1103 74.709L35.8048 74.9764C34.4844 76.1317 32.5133 76.1297 31.1945 74.9757C30.0709 73.9925 28.4466 73.8295 27.1516 74.5694L26.7442 74.8023C26.5176 74.9318 26.261 74.9999 26 74.9999H23.6174C21.3226 74.9999 20.2402 72.1669 21.9504 70.6368L28.445 64.8258C28.7789 64.527 28.9618 64.0946 28.9435 63.6468L28.155 44.3268C28.1386 43.9262 27.681 43.7068 27.3584 43.9449L10.7146 56.2296C9.59678 57.0547 8.24396 57.4999 6.85459 57.4999H5C2.51472 57.4999 0.5 55.4852 0.5 52.9999V52.6823C0.5 50.8733 1.25389 49.1461 2.58039 47.9161L10.5 40.5724V36.4999C10.5 35.6715 11.1716 34.9999 12 34.9999C12.8284 34.9999 13.5 35.6715 13.5 36.4999V37.7906L20.5 31.2997V27.4999C20.5 26.6715 21.1716 25.9999 22 25.9999C22.8284 25.9999 23.5 26.6715 23.5 27.4999V28.5179L26.7722 25.4836C27.5301 24.7808 27.9387 23.779 27.8883 22.7466L27.1433 7.47499C27.0296 5.1425 28.1758 2.92823 30.1459 1.67449L30.3781 1.52677Z" fill="#FF5000"/>
</g>
<defs>
<clipPath id="clip0_325_48">
<rect width="66" height="76" fill="white" transform="translate(0.5 0.5)"/>
</clipPath>
</defs>
</svg>
