<svg width="65" height="68" viewBox="0 0 65 68" fill="none" xmlns="http://www.w3.org/2000/svg">
<g clip-path="url(#clip0_325_106)">
<path fill-rule="evenodd" clip-rule="evenodd" d="M0.5 8C0.5 3.85786 3.45812 0.5 7.10714 0.5H30.8929C34.5419 0.5 37.5 3.85786 37.5 8V8.5C37.5 9.32843 36.9084 10 36.1786 10C35.4488 10 34.8571 9.32843 34.8571 8.5V8C34.8571 5.51472 33.0823 3.5 30.8929 3.5H7.10714C4.91773 3.5 3.14286 5.51472 3.14286 8V10.197H25.7038C26.4336 10.197 27.0253 10.8685 27.0253 11.697C27.0253 12.5254 26.4336 13.197 25.7038 13.197H3.14286V50.9242H34.8571V36.5C34.8571 35.6716 35.4488 35 36.1786 35C36.9084 35 37.5 35.6716 37.5 36.5V60C37.5 64.1421 34.5419 67.5 30.8929 67.5H7.10714C3.45812 67.5 0.5 64.1421 0.5 60V8ZM34.8571 53.9242H3.14286V60C3.14286 62.4853 4.91773 64.5 7.10714 64.5H30.8929C33.0823 64.5 34.8571 62.4853 34.8571 60V53.9242ZM14.5952 59.5C14.5952 58.6716 15.1869 58 15.9167 58H22.0833C22.8131 58 23.4048 58.6716 23.4048 59.5C23.4048 60.3284 22.8131 61 22.0833 61H15.9167C15.1869 61 14.5952 60.3284 14.5952 59.5Z" fill="#FF5000"/>
<path fill-rule="evenodd" clip-rule="evenodd" d="M22 22C22 13.7157 28.7157 7 37 7H49C57.2843 7 64 13.7157 64 22C64 30.2843 57.2843 37 49 37H37C28.7157 37 22 30.2843 22 22ZM37 10C30.3726 10 25 15.3726 25 22C25 28.6274 30.3726 34 37 34H49C55.6274 34 61 28.6274 61 22C61 15.3726 55.6274 10 49 10H37ZM50.0194 17.3996C50.6271 17.9626 50.6634 18.9117 50.1004 19.5194L43.8075 26.3123C43.7945 26.3263 43.7813 26.34 43.7678 26.3536C42.7914 27.3299 41.2086 27.3299 40.2323 26.3536L36.9393 23.0607C36.3536 22.4749 36.3536 21.5251 36.9393 20.9393C37.5251 20.3536 38.4749 20.3536 39.0607 20.9393L41.9857 23.8644L47.8996 17.4806C48.4626 16.8729 49.4117 16.8366 50.0194 17.3996ZM42.353 24.2316C42.3528 24.2314 42.3532 24.2318 42.353 24.2316Z" fill="#FF5000"/>
</g>
<defs>
<clipPath id="clip0_325_106">
<rect width="64" height="67" fill="white" transform="translate(0.5 0.5)"/>
</clipPath>
</defs>
</svg>
