<svg width="68" height="68" viewBox="0 0 68 68" fill="none" xmlns="http://www.w3.org/2000/svg">
<g clip-path="url(#clip0_325_134)">
<path fill-rule="evenodd" clip-rule="evenodd" d="M1 7.5C1 3.91015 3.91015 1 7.5 1H50.5C54.0899 1 57 3.91015 57 7.5V25H55.5C57 25 57 24.9999 57 25V38.5C57 39.3284 56.3284 40 55.5 40C54.6716 40 54 39.3284 54 38.5V26.5H4V43.75H44C44.8284 43.75 45.5 44.4216 45.5 45.25C45.5 46.0784 44.8284 46.75 44 46.75H4V60.5C4 62.433 5.567 64 7.5 64H50.5C52.433 64 54 62.433 54 60.5V53C54 52.1716 54.6716 51.5 55.5 51.5C56.3284 51.5 57 52.1716 57 53V60.5C57 64.0899 54.0899 67 50.5 67H7.5C3.91015 67 1 64.0899 1 60.5V7.5ZM4 23.5H54V7.5C54 5.567 52.433 4 50.5 4H7.5C5.567 4 4 5.567 4 7.5V23.5ZM47.5607 10.4393C48.1464 11.0251 48.1464 11.9749 47.5607 12.5607L42.7678 17.3536C41.7915 18.3299 40.2085 18.3299 39.2322 17.3536L36.9393 15.0607C36.3536 14.4749 36.3536 13.5251 36.9393 12.9393C37.5251 12.3536 38.4749 12.3536 39.0607 12.9393L41 14.8787L45.4393 10.4393C46.0251 9.85355 46.9749 9.85355 47.5607 10.4393ZM10 15.5C10 14.6716 10.6716 14 11.5 14H31C31.8284 14 32.5 14.6716 32.5 15.5C32.5 16.3284 31.8284 17 31 17H11.5C10.6716 17 10 16.3284 10 15.5ZM10 34.5C10 33.6716 10.6716 33 11.5 33H30.5C31.3284 33 32 33.6716 32 34.5C32 35.3284 31.3284 36 30.5 36H11.5C10.6716 36 10 35.3284 10 34.5ZM10 54.5C10 53.6716 10.6716 53 11.5 53H30.5C31.3284 53 32 53.6716 32 54.5C32 55.3284 31.3284 56 30.5 56H11.5C10.6716 56 10 55.3284 10 54.5Z" fill="#FF5000"/>
<path fill-rule="evenodd" clip-rule="evenodd" d="M41.0624 33.8428C41.4642 33.441 42.0584 33.3007 42.5974 33.4804L61.6893 39.8444C62.245 40.0296 62.6421 40.5214 62.706 41.1037C62.7699 41.686 62.489 42.2522 61.9867 42.5536L58.3308 44.7472L66.8991 53.3154C67.4849 53.9012 67.4849 54.851 66.8991 55.4368L62.601 59.7349C62.3186 60.0172 61.9354 60.1753 61.5361 60.1742C61.1368 60.173 60.7545 60.0128 60.4737 59.7289L51.9611 51.1207L49.7733 54.767C49.4719 55.2694 48.9057 55.5503 48.3234 55.4863C47.7411 55.4224 47.2493 55.0254 47.064 54.4696L40.7001 35.3778C40.5204 34.8388 40.6607 34.2445 41.0624 33.8428ZM44.4948 37.2751L48.8787 50.427L50.3828 47.9203C50.6212 47.5229 51.0299 47.2581 51.4899 47.2027C51.95 47.1474 52.4098 47.3078 52.7356 47.6373L61.5463 56.5469L63.7171 54.3761L54.851 45.51C54.5244 45.1834 54.3665 44.7245 54.4229 44.2661C54.4793 43.8076 54.7438 43.4008 55.1399 43.1631L57.6467 41.6591L44.4948 37.2751Z" fill="#FF5000"/>
</g>
<defs>
<clipPath id="clip0_325_134">
<rect width="67" height="67" fill="white" transform="translate(0.5 0.5)"/>
</clipPath>
</defs>
</svg>
