<svg width="79" height="76" viewBox="0 0 79 76" fill="none" xmlns="http://www.w3.org/2000/svg">
<path fill-rule="evenodd" clip-rule="evenodd" d="M1 7.5C1 3.91015 3.91015 1 7.5 1H49.5C53.0899 1 56 3.91015 56 7.5V31.5C56 32.3284 55.3284 33 54.5 33C53.6716 33 53 32.3284 53 31.5V7.5C53 5.567 51.433 4 49.5 4H7.5C5.567 4 4 5.567 4 7.5V62.5C4 64.433 5.567 66 7.5 66H49.5C51.433 66 53 64.433 53 62.5V59.5C53 58.6716 53.6716 58 54.5 58C55.3284 58 56 58.6716 56 59.5V62.5C56 66.0899 53.0899 69 49.5 69H7.5C3.91015 69 1 66.0899 1 62.5V7.5Z" fill="#FF5000"/>
<path fill-rule="evenodd" clip-rule="evenodd" d="M21.3078 11.65C23.5291 10.5742 25.985 10 28.5 10C28.6836 10 28.867 10.0031 29.05 10.0092C31.9943 10.1073 34.8391 10.991 37.3 12.5425C38.33 13.1918 39.2927 13.9582 40.1673 14.8327C41.0418 15.7073 41.8082 16.67 42.4575 17.7C44.1054 20.3138 45 23.3608 45 26.5C45 27.3284 44.3284 28 43.5 28C42.6716 28 42 27.3284 42 26.5C42 24.4853 41.5496 22.5169 40.7046 20.7296L39.3953 21.7035C38.7306 22.198 37.7909 22.06 37.2965 21.3953C36.802 20.7306 36.94 19.7909 37.6047 19.2965L39.122 18.1678C38.7897 17.7442 38.4306 17.3387 38.0459 16.9541C37.7102 16.6184 37.3587 16.3022 36.9931 16.0063L36.3099 17.2308C35.9063 17.9543 34.9926 18.2135 34.2692 17.8099C33.5457 17.4063 33.2865 16.4926 33.6901 15.7692L34.461 14.3873C33.2166 13.7749 31.8808 13.3557 30.5 13.1489V15C30.5 15.8284 29.8284 16.5 29 16.5C28.1716 16.5 27.5 15.8284 27.5 15V13.0371C26.1782 13.1352 24.8867 13.4268 23.6643 13.8958L24.7793 15.7167C25.2118 16.4233 24.9898 17.3467 24.2833 17.7793C23.5767 18.2118 22.6533 17.9898 22.2207 17.2833L20.9937 15.2792C20.266 15.766 19.5823 16.3258 18.9541 16.9541C18.5694 17.3387 18.2103 17.7442 17.878 18.1678L19.3953 19.2965C20.06 19.7909 20.198 20.7306 19.7035 21.3953C19.2091 22.06 18.2694 22.198 17.6047 21.7035L16.2954 20.7296C15.4504 22.5169 15 24.4853 15 26.5C15 27.3284 14.3284 28 13.5 28C12.6716 28 12 27.3284 12 26.5C12 23.3608 12.8946 20.3138 14.5425 17.7C15.1918 16.67 15.9582 15.7073 16.8327 14.8327C18.012 13.6535 19.3515 12.6711 20.8 11.9068C20.9679 11.8183 21.1372 11.7326 21.3078 11.65Z" fill="#FF5000"/>
<path fill-rule="evenodd" clip-rule="evenodd" d="M35.8061 22.4083C36.1329 22.8535 36.037 23.4794 35.5918 23.8062L31.4314 26.8604C31.4764 27.0669 31.5 27.281 31.5 27.5001C31.5 29.157 30.1569 30.5001 28.5 30.5001C26.8431 30.5001 25.5 29.157 25.5 27.5001C25.5 25.8433 26.8431 24.5001 28.5 24.5001C29.209 24.5001 29.86 24.7463 30.3728 25.1565L34.4082 22.194C34.8534 21.8672 35.4793 21.9631 35.8061 22.4083ZM28.5 26.5001C27.9477 26.5001 27.5 26.9478 27.5 27.5001C27.5 28.0524 27.9477 28.5001 28.5 28.5001C29.0523 28.5001 29.5 28.0524 29.5 27.5001C29.5 27.3163 29.4513 27.1469 29.3668 27.0008C29.1924 26.6993 28.8689 26.5001 28.5 26.5001Z" fill="#FF5000"/>
<path fill-rule="evenodd" clip-rule="evenodd" d="M12.5 43C12.5 42.1716 13.1716 41.5 14 41.5H26C26.8284 41.5 27.5 42.1716 27.5 43C27.5 43.8284 26.8284 44.5 26 44.5H14C13.1716 44.5 12.5 43.8284 12.5 43Z" fill="#FF5000"/>
<path fill-rule="evenodd" clip-rule="evenodd" d="M12.5 49.5C12.5 48.6716 13.1716 48 14 48H23C23.8284 48 24.5 48.6716 24.5 49.5C24.5 50.3284 23.8284 51 23 51H14C13.1716 51 12.5 50.3284 12.5 49.5Z" fill="#FF5000"/>
<path fill-rule="evenodd" clip-rule="evenodd" d="M49.5 57.5C56.1274 57.5 61.5 52.1274 61.5 45.5C61.5 38.8726 56.1274 33.5 49.5 33.5C42.8726 33.5 37.5 38.8726 37.5 45.5C37.5 52.1274 42.8726 57.5 49.5 57.5ZM49.5 60.5C57.7843 60.5 64.5 53.7843 64.5 45.5C64.5 37.2157 57.7843 30.5 49.5 30.5C41.2157 30.5 34.5 37.2157 34.5 45.5C34.5 53.7843 41.2157 60.5 49.5 60.5Z" fill="#FF5000"/>
<path d="M47.5898 49.2617C47.5898 48.168 47.7227 47.2969 47.9883 46.6484C48.2539 46 48.7383 45.3633 49.4414 44.7383C50.1523 44.1055 50.625 43.5938 50.8594 43.2031C51.0938 42.8047 51.2109 42.3867 51.2109 41.9492C51.2109 40.6289 50.6016 39.9688 49.3828 39.9688C48.8047 39.9688 48.3398 40.1484 47.9883 40.5078C47.6445 40.8594 47.4648 41.3477 47.4492 41.9727H44.0508C44.0664 40.4805 44.5469 39.3125 45.4922 38.4688C46.4453 37.625 47.7422 37.2031 49.3828 37.2031C51.0391 37.2031 52.3242 37.6055 53.2383 38.4102C54.1523 39.207 54.6094 40.3359 54.6094 41.7969C54.6094 42.4609 54.4609 43.0898 54.1641 43.6836C53.8672 44.2695 53.3477 44.9219 52.6055 45.6406L51.6562 46.543C51.0625 47.1133 50.7227 47.7812 50.6367 48.5469L50.5898 49.2617H47.5898ZM47.25 52.8594C47.25 52.3359 47.4258 51.9062 47.7773 51.5703C48.1367 51.2266 48.5938 51.0547 49.1484 51.0547C49.7031 51.0547 50.1562 51.2266 50.5078 51.5703C50.8672 51.9062 51.0469 52.3359 51.0469 52.8594C51.0469 53.375 50.8711 53.8008 50.5195 54.1367C50.1758 54.4727 49.7188 54.6406 49.1484 54.6406C48.5781 54.6406 48.1172 54.4727 47.7656 54.1367C47.4219 53.8008 47.25 53.375 47.25 52.8594Z" fill="#FF5000"/>
<path fill-rule="evenodd" clip-rule="evenodd" d="M63.8831 57.6388C65.5986 56.862 67.689 57.2234 69.0395 58.6806L75.1574 65.2815C76.8468 67.1042 76.7387 69.9514 74.9159 71.6408C73.0931 73.3302 70.2459 73.2221 68.5565 71.3993L62.4387 64.7984C61.1262 63.3823 60.8986 61.3479 61.7171 59.7184L58.9629 57.0839L61.0365 54.916L63.8831 57.6388ZM66.8392 60.7199C66.2761 60.1123 65.327 60.0762 64.7194 60.6394C64.1119 61.2025 64.0758 62.1516 64.6389 62.7592L70.7568 69.36C71.32 69.9676 72.269 70.0037 72.8766 69.4405C73.4842 68.8774 73.5202 67.9283 72.9571 67.3207L66.8392 60.7199Z" fill="#FF5000"/>
</svg>
