<svg width="140" height="55" viewBox="0 0 140 55" fill="none" xmlns="http://www.w3.org/2000/svg">
<path d="M2.81417 26.3931V6.51979H15.7396V9.53766H6.41427V14.933H15.07V17.9508H6.41427V23.3753H15.8172V26.3931H2.81417ZM19.4125 26.3931V6.51979H32.1438V9.53766H23.0126V14.933H31.2705V17.9508H23.0126V26.3931H19.4125ZM46.224 11.983C46.1335 11.1356 45.7518 10.4757 45.079 10.0034C44.4127 9.53119 43.5458 9.29507 42.4784 9.29507C41.7279 9.29507 41.0843 9.40828 40.5473 9.6347C40.0104 9.86112 39.5996 10.1684 39.3149 10.5566C39.0303 10.9447 38.8847 11.3879 38.8783 11.886C38.8783 12.3 38.9721 12.659 39.1597 12.9631C39.3537 13.2671 39.6158 13.5259 39.9457 13.7394C40.2756 13.9464 40.6411 14.1211 41.0422 14.2634C41.4433 14.4057 41.8476 14.5254 42.2552 14.6224L44.1183 15.0882C44.8687 15.2629 45.59 15.499 46.2822 15.7966C46.9809 16.0942 47.6052 16.4694 48.1551 16.9222C48.7114 17.3751 49.1513 17.9217 49.4748 18.5622C49.7982 19.2026 49.96 19.9531 49.96 20.8135C49.96 21.9779 49.6624 23.0033 49.0672 23.8896C48.4721 24.7694 47.6117 25.4583 46.486 25.9565C45.3669 26.4481 44.0116 26.6939 42.4201 26.6939C40.874 26.6939 39.5317 26.4546 38.3931 25.9759C37.261 25.4971 36.3747 24.7985 35.7342 23.8798C35.1003 22.9612 34.7574 21.8421 34.7056 20.5223H38.2475C38.2993 21.2145 38.5128 21.7903 38.888 22.2496C39.2632 22.7089 39.7516 23.0518 40.3532 23.2782C40.9613 23.5046 41.6406 23.6178 42.391 23.6178C43.1738 23.6178 43.8595 23.5014 44.4482 23.2685C45.0434 23.0292 45.5092 22.6992 45.8456 22.2787C46.182 21.8518 46.3534 21.3536 46.3599 20.7843C46.3534 20.2668 46.2014 19.8398 45.9038 19.5034C45.6062 19.1606 45.189 18.8759 44.652 18.6495C44.1215 18.4166 43.5005 18.2096 42.7889 18.0285L40.5279 17.4462C38.8912 17.0257 37.5974 16.3885 36.6464 15.5346C35.7019 14.6742 35.2296 13.5324 35.2296 12.1092C35.2296 10.9382 35.5466 9.91288 36.1806 9.03307C36.8211 8.15326 37.6912 7.47076 38.7909 6.98557C39.8907 6.49391 41.136 6.24808 42.5269 6.24808C43.9372 6.24808 45.1728 6.49391 46.2337 6.98557C47.3011 7.47076 48.1389 8.14679 48.747 9.01366C49.3551 9.87406 49.6689 10.8638 49.6883 11.983H46.224ZM53.1695 26.3931V6.51979H60.622C62.1487 6.51979 63.4296 6.80443 64.4647 7.37372C65.5062 7.94301 66.2923 8.72578 66.8227 9.72203C67.3597 10.7118 67.6281 11.8375 67.6281 13.0989C67.6281 14.3734 67.3597 15.5055 66.8227 16.4953C66.2858 17.4851 65.4933 18.2646 64.4453 18.8339C63.3973 19.3967 62.1067 19.6781 60.5735 19.6781H55.6343V16.7185H60.0883C60.981 16.7185 61.7121 16.5632 62.2814 16.2527C62.8506 15.9422 63.2711 15.5152 63.5428 14.9718C63.821 14.4284 63.9601 13.8041 63.9601 13.0989C63.9601 12.3938 63.821 11.7728 63.5428 11.2358C63.2711 10.6989 62.8474 10.2816 62.2717 9.98404C61.7024 9.67999 60.9681 9.52796 60.0689 9.52796H56.7696V26.3931H53.1695ZM77.5333 26.3931V6.51979H84.9858C86.5125 6.51979 87.7934 6.78502 88.8285 7.3155C89.87 7.84597 90.656 8.58993 91.1865 9.54737C91.7234 10.4983 91.9919 11.6078 91.9919 12.8758C91.9919 14.1502 91.7202 15.2564 91.1768 16.1945C90.6398 17.126 89.8474 17.8473 88.7994 18.3584C87.7513 18.863 86.464 19.1153 84.9373 19.1153H79.6293V16.1265H84.4521C85.3448 16.1265 86.0758 16.0036 86.6451 15.7578C87.2144 15.5055 87.6349 15.14 87.9066 14.6613C88.1848 14.1761 88.3239 13.5809 88.3239 12.8758C88.3239 12.1706 88.1848 11.569 87.9066 11.0709C87.6284 10.5663 87.2047 10.1846 86.6354 9.92581C86.0661 9.66058 85.3319 9.52796 84.4327 9.52796H81.1334V26.3931H77.5333ZM87.7999 17.388L92.7197 26.3931H88.7023L83.8698 17.388H87.7999ZM95.3057 6.51979H99.7113L105.611 20.9202H105.844L111.744 6.51979H116.149V26.3931H112.695V12.7399H112.511L107.018 26.3349H104.437L98.9447 12.7108H98.7603V26.3931H95.3057V6.51979ZM132.597 6.51979H136.197V19.5034C136.197 20.9267 135.861 22.1785 135.188 23.2588C134.522 24.3392 133.584 25.1834 132.374 25.7915C131.164 26.3931 129.751 26.6939 128.134 26.6939C126.51 26.6939 125.093 26.3931 123.883 25.7915C122.674 25.1834 121.736 24.3392 121.069 23.2588C120.403 22.1785 120.07 20.9267 120.07 19.5034V6.51979H123.67V19.2026C123.67 20.0307 123.851 20.7682 124.213 21.4151C124.582 22.062 125.1 22.5698 125.766 22.9386C126.432 23.3009 127.221 23.482 128.134 23.482C129.046 23.482 129.835 23.3009 130.501 22.9386C131.174 22.5698 131.692 22.062 132.054 21.4151C132.416 20.7682 132.597 20.0307 132.597 19.2026V6.51979Z" fill="black"/>
<path d="M1.53327 39.8585V37.9723H11.4433V39.8585H7.6042V50.3931H5.37233V39.8585H1.53327ZM12.2893 50.3931V41.0775H14.4181V42.6301H14.5151C14.6849 42.0924 14.976 41.6779 15.3884 41.3868C15.8049 41.0917 16.28 40.9441 16.8137 40.9441C16.935 40.9441 17.0704 40.9501 17.22 40.9623C17.3737 40.9704 17.501 40.9845 17.6021 41.0047V43.0243C17.5091 42.992 17.3615 42.9637 17.1594 42.9394C16.9613 42.9111 16.7692 42.897 16.5832 42.897C16.1829 42.897 15.8231 42.9839 15.5037 43.1577C15.1883 43.3276 14.9396 43.5641 14.7577 43.8673C14.5758 44.1706 14.4848 44.5203 14.4848 44.9166V50.3931H12.2893ZM21.5746 50.5811C20.9843 50.5811 20.4526 50.476 19.9795 50.2658C19.5105 50.0515 19.1386 49.7361 18.8636 49.3196C18.5927 48.9032 18.4573 48.3897 18.4573 47.7792C18.4573 47.2536 18.5543 46.8189 18.7484 46.4752C18.9425 46.1316 19.2073 45.8566 19.5429 45.6504C19.8785 45.4442 20.2565 45.2885 20.677 45.1834C21.1015 45.0742 21.5402 44.9954 21.9931 44.9469C22.5389 44.8903 22.9817 44.8397 23.3213 44.7953C23.6609 44.7467 23.9076 44.674 24.0612 44.5769C24.2189 44.4758 24.2977 44.3202 24.2977 44.1099V44.0735C24.2977 43.6167 24.1623 43.2629 23.8914 43.0122C23.6205 42.7615 23.2303 42.6362 22.7209 42.6362C22.1831 42.6362 21.7566 42.7534 21.4412 42.9879C21.1298 43.2224 20.9196 43.4994 20.8104 43.8188L18.7605 43.5277C18.9222 42.9616 19.1891 42.4886 19.5611 42.1085C19.933 41.7244 20.3879 41.4373 20.9257 41.2473C21.4634 41.0532 22.0578 40.9562 22.7087 40.9562C23.1575 40.9562 23.6043 41.0088 24.0491 41.1139C24.4938 41.219 24.9002 41.3929 25.2681 41.6355C25.636 41.874 25.9312 42.1995 26.1536 42.6119C26.38 43.0243 26.4932 43.5398 26.4932 44.1584V50.3931H24.3826V49.1134H24.3099C24.1764 49.3722 23.9884 49.6148 23.7458 49.8412C23.5073 50.0636 23.2061 50.2435 22.8422 50.381C22.4823 50.5144 22.0598 50.5811 21.5746 50.5811ZM22.1447 48.9679C22.5854 48.9679 22.9675 48.881 23.291 48.7071C23.6144 48.5292 23.8631 48.2947 24.0369 48.0036C24.2148 47.7125 24.3038 47.3951 24.3038 47.0514V45.9536C24.2351 46.0103 24.1178 46.0628 23.952 46.1113C23.7903 46.1599 23.6084 46.2023 23.4062 46.2387C23.204 46.2751 23.0039 46.3074 22.8058 46.3357C22.6077 46.364 22.4358 46.3883 22.2903 46.4085C21.9628 46.453 21.6696 46.5258 21.4109 46.6268C21.1521 46.7279 20.9479 46.8694 20.7983 47.0514C20.6487 47.2293 20.5739 47.4598 20.5739 47.7428C20.5739 48.1471 20.7215 48.4524 21.0166 48.6586C21.3118 48.8648 21.6878 48.9679 22.1447 48.9679ZM32.7643 50.5751C31.8343 50.5751 31.0358 50.3709 30.3687 49.9625C29.7056 49.5542 29.1941 48.9901 28.8342 48.2704C28.4784 47.5467 28.3005 46.7138 28.3005 45.7717C28.3005 44.8256 28.4825 43.9907 28.8464 43.2669C29.2103 42.5391 29.7238 41.9731 30.3868 41.5688C31.054 41.1604 31.8424 40.9562 32.7521 40.9562C33.5082 40.9562 34.1774 41.0957 34.7596 41.3747C35.3459 41.6496 35.8129 42.0398 36.1606 42.5452C36.5083 43.0466 36.7064 43.6328 36.755 44.304H34.6565C34.5716 43.8552 34.3694 43.4812 34.05 43.182C33.7347 42.8788 33.3121 42.7271 32.7825 42.7271C32.3337 42.7271 31.9395 42.8484 31.5998 43.091C31.2602 43.3296 30.9954 43.6733 30.8053 44.1221C30.6193 44.5709 30.5263 45.1086 30.5263 45.7353C30.5263 46.3701 30.6193 46.9159 30.8053 47.3728C30.9913 47.8257 31.2521 48.1754 31.5877 48.422C31.9273 48.6646 32.3256 48.7859 32.7825 48.7859C33.1059 48.7859 33.395 48.7253 33.6497 48.604C33.9085 48.4787 34.1248 48.2987 34.2987 48.0642C34.4725 47.8297 34.5918 47.5447 34.6565 47.2091H36.755C36.7024 47.8681 36.5083 48.4524 36.1727 48.9618C35.8371 49.4672 35.3803 49.8635 34.8021 50.1505C34.2239 50.4336 33.5446 50.5751 32.7643 50.5751ZM40.5591 47.4699L40.5531 44.8195H40.9048L44.2526 41.0775H46.8181L42.7 45.6625H42.2452L40.5591 47.4699ZM38.5577 50.3931V37.9723H40.7532V50.3931H38.5577ZM44.4043 50.3931L41.3718 46.1538L42.8517 44.6072L47.0303 50.3931H44.4043ZM48.2812 50.3931V41.0775H50.4767V50.3931H48.2812ZM49.385 39.7554C49.0373 39.7554 48.7381 39.6401 48.4874 39.4097C48.2367 39.1752 48.1114 38.8941 48.1114 38.5666C48.1114 38.2351 48.2367 37.9541 48.4874 37.7236C48.7381 37.4891 49.0373 37.3719 49.385 37.3719C49.7368 37.3719 50.036 37.4891 50.2826 37.7236C50.5333 37.9541 50.6587 38.2351 50.6587 38.5666C50.6587 38.8941 50.5333 39.1752 50.2826 39.4097C50.036 39.6401 49.7368 39.7554 49.385 39.7554ZM54.9298 44.9348V50.3931H52.7343V41.0775H54.8328V42.6604H54.942C55.1563 42.1388 55.4979 41.7244 55.9669 41.4171C56.44 41.1098 57.0242 40.9562 57.7197 40.9562C58.3625 40.9562 58.9225 41.0937 59.3996 41.3686C59.8808 41.6436 60.2528 42.0418 60.5156 42.5634C60.7824 43.085 60.9138 43.7177 60.9098 44.4617V50.3931H58.7143V44.8013C58.7143 44.1787 58.5526 43.6915 58.2291 43.3397C57.9097 42.9879 57.467 42.812 56.9009 42.812C56.5168 42.812 56.1751 42.897 55.8759 43.0668C55.5808 43.2325 55.3483 43.4731 55.1785 43.7885C55.0127 44.1039 54.9298 44.486 54.9298 44.9348ZM67.193 54.0806C66.4045 54.0806 65.7273 53.9734 65.1613 53.7591C64.5952 53.5489 64.1403 53.2659 63.7967 52.91C63.453 52.5542 63.2144 52.16 63.081 51.7274L65.0581 51.2483C65.1471 51.4302 65.2765 51.6101 65.4463 51.788C65.6161 51.97 65.8446 52.1196 66.1316 52.2368C66.4227 52.3581 66.7887 52.4188 67.2294 52.4188C67.852 52.4188 68.3675 52.2672 68.7759 51.9639C69.1843 51.6647 69.3885 51.1715 69.3885 50.4841V48.7192H69.2793C69.1661 48.9456 69.0003 49.1781 68.782 49.4167C68.5677 49.6552 68.2826 49.8554 67.9268 50.0171C67.5751 50.1788 67.1323 50.2597 66.5986 50.2597C65.883 50.2597 65.234 50.0919 64.6518 49.7563C64.0736 49.4167 63.6127 48.9113 63.269 48.2401C62.9294 47.5649 62.7596 46.7198 62.7596 45.705C62.7596 44.682 62.9294 43.8188 63.269 43.1153C63.6127 42.4077 64.0756 41.872 64.6579 41.5081C65.2401 41.1402 65.889 40.9562 66.6047 40.9562C67.1505 40.9562 67.5993 41.0492 67.9511 41.2352C68.3069 41.4171 68.5899 41.6375 68.8002 41.8963C69.0104 42.151 69.1701 42.3916 69.2793 42.618H69.4006V41.0775H71.5657V50.5447C71.5657 51.3413 71.3757 52.0003 70.9956 52.5219C70.6156 53.0435 70.096 53.4336 69.437 53.6924C68.7779 53.9512 68.0299 54.0806 67.193 54.0806ZM67.2112 48.5373C67.6761 48.5373 68.0724 48.4241 68.3999 48.1976C68.7274 47.9712 68.976 47.6457 69.1459 47.2212C69.3157 46.7967 69.4006 46.2872 69.4006 45.6929C69.4006 45.1066 69.3157 44.5931 69.1459 44.1524C68.9801 43.7117 68.7335 43.37 68.406 43.1274C68.0825 42.8808 67.6842 42.7575 67.2112 42.7575C66.7219 42.7575 66.3136 42.8848 65.9861 43.1396C65.6586 43.3943 65.4119 43.744 65.2462 44.1888C65.0804 44.6295 64.9975 45.1308 64.9975 45.6929C64.9975 46.263 65.0804 46.7623 65.2462 47.1909C65.416 47.6154 65.6646 47.947 65.9921 48.1855C66.3237 48.42 66.73 48.5373 67.2112 48.5373ZM84.8993 41.3868C84.8427 40.8571 84.6042 40.4447 84.1837 40.1496C83.7672 39.8544 83.2254 39.7068 82.5583 39.7068C82.0893 39.7068 81.687 39.7776 81.3514 39.9191C81.0158 40.0606 80.7591 40.2527 80.5812 40.4953C80.4033 40.7379 80.3123 41.0148 80.3082 41.3262C80.3082 41.5849 80.3669 41.8093 80.4841 41.9994C80.6054 42.1894 80.7692 42.3511 80.9754 42.4845C81.1816 42.6139 81.41 42.7231 81.6607 42.812C81.9114 42.901 82.1641 42.9758 82.4188 43.0364L83.5833 43.3276C84.0523 43.4367 84.5031 43.5843 84.9357 43.7703C85.3724 43.9563 85.7626 44.1908 86.1063 44.4738C86.454 44.7568 86.7289 45.0985 86.9311 45.4988C87.1332 45.8991 87.2343 46.3681 87.2343 46.9058C87.2343 47.6336 87.0483 48.2745 86.6763 48.8284C86.3044 49.3783 85.7666 49.8089 85.0631 50.1202C84.3636 50.4275 83.5166 50.5811 82.5219 50.5811C81.5556 50.5811 80.7166 50.4315 80.005 50.1323C79.2974 49.8331 78.7435 49.3965 78.3432 48.8223C77.947 48.2482 77.7327 47.5487 77.7004 46.7239H79.914C79.9464 47.1565 80.0798 47.5164 80.3143 47.8034C80.5488 48.0905 80.8541 48.3048 81.2301 48.4463C81.6102 48.5878 82.0347 48.6586 82.5037 48.6586C82.993 48.6586 83.4215 48.5858 83.7895 48.4402C84.1615 48.2906 84.4526 48.0844 84.6628 47.8216C84.8731 47.5548 84.9802 47.2434 84.9843 46.8876C84.9802 46.5642 84.8852 46.2973 84.6992 46.0871C84.5132 45.8728 84.2524 45.6949 83.9168 45.5534C83.5853 45.4078 83.1971 45.2784 82.7524 45.1652L81.3393 44.8013C80.3163 44.5385 79.5077 44.1403 78.9133 43.6065C78.323 43.0688 78.0279 42.3552 78.0279 41.4656C78.0279 40.7338 78.226 40.093 78.6222 39.5431C79.0225 38.9932 79.5663 38.5666 80.2537 38.2634C80.941 37.9561 81.7193 37.8025 82.5886 37.8025C83.4701 37.8025 84.2423 37.9561 84.9054 38.2634C85.5725 38.5666 86.0961 38.9892 86.4762 39.531C86.8563 40.0687 87.0524 40.6873 87.0645 41.3868H84.8993ZM90.5078 53.8865C90.2086 53.8865 89.9317 53.8622 89.6769 53.8137C89.4263 53.7692 89.2261 53.7167 89.0765 53.656L89.586 51.9457C89.9054 52.0387 90.1904 52.0832 90.4411 52.0792C90.6918 52.0751 90.9121 51.9963 91.1022 51.8426C91.2963 51.693 91.46 51.4423 91.5934 51.0906L91.7814 50.5872L88.4033 41.0775H90.7322L92.8792 48.1127H92.9762L95.1293 41.0775H97.4642L93.7343 51.5212C93.5605 52.0145 93.33 52.437 93.0429 52.7887C92.7559 53.1446 92.4041 53.4155 91.9877 53.6014C91.5752 53.7915 91.082 53.8865 90.5078 53.8865ZM106.346 43.5398L104.345 43.7582C104.288 43.556 104.189 43.366 104.048 43.1881C103.91 43.0102 103.724 42.8666 103.49 42.7575C103.255 42.6483 102.968 42.5937 102.628 42.5937C102.172 42.5937 101.787 42.6928 101.476 42.8909C101.169 43.089 101.017 43.3458 101.021 43.6611C101.017 43.932 101.116 44.1524 101.318 44.3222C101.525 44.492 101.864 44.6315 102.337 44.7407L103.926 45.0803C104.808 45.2703 105.463 45.5716 105.891 45.984C106.324 46.3964 106.542 46.9362 106.546 47.6033C106.542 48.1896 106.37 48.7071 106.031 49.1559C105.695 49.6007 105.228 49.9484 104.63 50.1991C104.031 50.4497 103.344 50.5751 102.568 50.5751C101.428 50.5751 100.51 50.3365 99.8144 49.8594C99.1189 49.3783 98.7045 48.7091 98.5711 47.852L100.712 47.6457C100.809 48.0662 101.015 48.3836 101.331 48.5979C101.646 48.8122 102.056 48.9194 102.562 48.9194C103.083 48.9194 103.502 48.8122 103.817 48.5979C104.137 48.3836 104.296 48.1188 104.296 47.8034C104.296 47.5366 104.193 47.3162 103.987 47.1424C103.785 46.9685 103.469 46.8351 103.041 46.7421L101.452 46.4085C100.558 46.2225 99.8972 45.9092 99.4687 45.4685C99.0401 45.0237 98.8278 44.4617 98.8319 43.7824C98.8278 43.2083 98.9835 42.711 99.2988 42.2905C99.6183 41.8659 100.061 41.5384 100.627 41.308C101.197 41.0735 101.854 40.9562 102.598 40.9562C103.69 40.9562 104.549 41.1887 105.176 41.6537C105.806 42.1186 106.197 42.7474 106.346 43.5398ZM113.008 41.0775V42.7757H107.653V41.0775H113.008ZM108.975 38.8456H111.171V47.5912C111.171 47.8863 111.215 48.1127 111.304 48.2704C111.397 48.4241 111.519 48.5292 111.668 48.5858C111.818 48.6424 111.984 48.6707 112.165 48.6707C112.303 48.6707 112.428 48.6606 112.541 48.6404C112.659 48.6202 112.748 48.602 112.808 48.5858L113.178 50.3022C113.061 50.3426 112.893 50.3871 112.675 50.4356C112.461 50.4841 112.198 50.5124 111.886 50.5205C111.337 50.5367 110.841 50.4538 110.401 50.2718C109.96 50.0858 109.61 49.7988 109.351 49.4106C109.097 49.0225 108.971 48.5373 108.975 47.9551V38.8456ZM118.869 50.5751C117.935 50.5751 117.128 50.381 116.449 49.9928C115.774 49.6007 115.254 49.0467 114.89 48.3311C114.526 47.6114 114.344 46.7643 114.344 45.7899C114.344 44.8316 114.526 43.9907 114.89 43.2669C115.258 42.5391 115.772 41.9731 116.431 41.5688C117.09 41.1604 117.864 40.9562 118.753 40.9562C119.328 40.9562 119.869 41.0492 120.379 41.2352C120.892 41.4171 121.345 41.7002 121.737 42.0843C122.134 42.4684 122.445 42.9576 122.671 43.552C122.898 44.1423 123.011 44.8458 123.011 45.6625V46.3357H115.375V44.8559H120.906C120.902 44.4354 120.811 44.0614 120.634 43.7339C120.456 43.4024 120.207 43.1416 119.888 42.9515C119.572 42.7615 119.204 42.6665 118.784 42.6665C118.335 42.6665 117.941 42.7757 117.601 42.994C117.261 43.2083 116.997 43.4913 116.807 43.8431C116.621 44.1908 116.526 44.5729 116.522 44.9893V46.2812C116.522 46.8229 116.621 47.2879 116.819 47.6761C117.017 48.0602 117.294 48.3553 117.65 48.5615C118.005 48.7637 118.422 48.8648 118.899 48.8648C119.218 48.8648 119.507 48.8203 119.766 48.7314C120.025 48.6384 120.249 48.5029 120.439 48.325C120.629 48.1471 120.773 47.9268 120.87 47.6639L122.92 47.8944C122.791 48.4362 122.544 48.9093 122.18 49.3136C121.82 49.7139 121.359 50.0252 120.797 50.2476C120.235 50.4659 119.592 50.5751 118.869 50.5751ZM124.868 50.3931V41.0775H126.967V42.6604H127.076C127.27 42.1267 127.591 41.7103 128.04 41.4111C128.489 41.1078 129.025 40.9562 129.647 40.9562C130.278 40.9562 130.81 41.1098 131.242 41.4171C131.679 41.7204 131.986 42.1348 132.164 42.6604H132.261C132.468 42.1429 132.815 41.7305 133.305 41.4232C133.798 41.1119 134.382 40.9562 135.057 40.9562C135.914 40.9562 136.614 41.2271 137.156 41.7689C137.698 42.3107 137.968 43.1011 137.968 44.1403V50.3931H135.767V44.4799C135.767 43.9017 135.613 43.4792 135.306 43.2123C134.999 42.9414 134.623 42.806 134.178 42.806C133.648 42.806 133.234 42.9718 132.935 43.3033C132.639 43.6308 132.492 44.0574 132.492 44.583V50.3931H130.339V44.3889C130.339 43.9078 130.193 43.5237 129.902 43.2366C129.615 42.9495 129.239 42.806 128.774 42.806C128.459 42.806 128.172 42.8868 127.913 43.0486C127.654 43.2063 127.448 43.4307 127.294 43.7218C127.141 44.0088 127.064 44.3444 127.064 44.7285V50.3931H124.868Z" fill="black"/>
</svg>
