<svg width="18" height="19" viewBox="0 0 18 19" fill="none" xmlns="http://www.w3.org/2000/svg">
<path d="M2.10771 11.5245C1.05524 12.2289 0.538818 13.1453 0.538818 14.0834C0.538818 15.0205 1.0543 15.9284 2.10645 16.6247L2.10913 16.6265C3.25124 17.393 4.79017 17.7917 6.34715 17.7917C7.9029 17.7917 9.43418 17.3936 10.5858 16.6261L2.10771 11.5245ZM2.10771 11.5245C3.2592 10.7609 4.79484 10.3646 6.3534 10.3646C7.91248 10.3646 9.44359 10.7612 10.5861 11.5242L10.5865 11.5244C11.6332 12.2222 12.1555 13.1311 12.1555 14.0667C12.1555 15.0049 11.6388 15.9216 10.5858 16.6261L2.10771 11.5245ZM14.1638 10.55L14.056 11.0382C14.7099 11.1827 15.2654 11.4379 15.7087 11.7794L15.7086 11.7795L15.7131 11.7828C16.38 12.2848 16.7305 12.9693 16.7305 13.6584C16.7305 14.3441 16.3745 15.0309 15.7021 15.5443L15.7021 15.5443L15.6994 15.5463C15.2489 15.8951 14.6719 16.1567 14.0252 16.2845L13.9941 16.2907L13.9911 16.2917L13.9888 16.2917C13.9278 16.2917 13.8823 16.2529 13.8713 16.1963L13.8712 16.1959C13.857 16.1229 13.901 16.0556 13.971 16.0384C14.5536 15.9174 15.1075 15.6829 15.5512 15.3386C16.1137 14.9132 16.4805 14.3293 16.4805 13.6584C16.4805 12.9888 16.1151 12.4041 15.5584 11.9855C15.1223 11.6493 14.5941 11.4246 14.0013 11.2878L13.9986 11.2872C13.9327 11.2724 13.887 11.2046 13.9019 11.1335C13.9174 11.0679 13.9855 11.0228 14.0566 11.0384L14.1638 10.55ZM14.1638 10.55C13.8222 10.475 13.4888 10.6917 13.4138 11.025L16.0055 15.9417C16.7805 15.35 17.2305 14.525 17.2305 13.6584C17.2305 12.7917 16.7888 11.9667 16.0138 11.3834C15.5055 10.9917 14.8805 10.7084 14.1638 10.55ZM6.07124 8.43304L6.12146 8.43481L6.16234 8.428C6.16281 8.42797 6.16333 8.42794 6.16389 8.42791C6.17158 8.42748 6.18376 8.4271 6.20028 8.4271C6.23344 8.4271 6.27479 8.42862 6.31714 8.43188L6.34775 8.43424L6.37842 8.43283C8.28028 8.3455 9.77081 6.78289 9.78049 4.86921V4.86669C9.78049 2.89888 8.1733 1.29169 6.20549 1.29169C4.23768 1.29169 2.63049 2.89888 2.63049 4.86669C2.63049 6.80291 4.14403 8.36525 6.07124 8.43304ZM15.4222 5.75002C15.4222 7.38899 14.1479 8.71466 12.518 8.79105L12.4711 8.77539L12.3653 8.78572C12.3244 8.78971 12.2731 8.77653 12.2322 8.74637C12.193 8.71749 12.1872 8.69243 12.1865 8.6848C12.1809 8.62787 12.1967 8.58862 12.2113 8.56851C12.2222 8.55346 12.2355 8.54321 12.2594 8.53899C12.3322 8.53362 12.4151 8.53335 12.5055 8.53335H12.5192L12.5328 8.5326C14.0146 8.45142 15.1722 7.23226 15.1722 5.74169C15.1722 4.19888 13.9233 2.95002 12.3805 2.95002V2.94987L12.3683 2.95017C12.3424 2.9508 12.3152 2.94097 12.2918 2.91776C12.268 2.89418 12.2555 2.86387 12.2555 2.83335C12.2555 2.80321 12.2678 2.77193 12.2934 2.74628C12.3191 2.72064 12.3503 2.70835 12.3805 2.70835C14.0543 2.70835 15.4222 4.07616 15.4222 5.75002ZM6.33882 8.68335H6.33867H6.33853H6.33838H6.33823H6.33809H6.33794H6.3378H6.33765H6.33751H6.33736H6.33722H6.33707H6.33693H6.33679H6.33664H6.3365H6.33636H6.33621H6.33607H6.33593H6.33578H6.33564H6.3355H6.33536H6.33521H6.33507H6.33493H6.33479H6.33465H6.33451H6.33437H6.33423H6.33408H6.33394H6.3338H6.33366H6.33352H6.33338H6.33324H6.3331H6.33296H6.33283H6.33269H6.33255H6.33241H6.33227H6.33213H6.33199H6.33186H6.33172H6.33158H6.33144H6.3313H6.33117H6.33103H6.33089H6.33076H6.33062H6.33048H6.33035H6.33021H6.33007H6.32994H6.3298H6.32967H6.32953H6.3294H6.32926H6.32912H6.32899H6.32886H6.32872H6.32859H6.32845H6.32832H6.32818H6.32805H6.32791H6.32778H6.32765H6.32751H6.32738H6.32725H6.32711H6.32698H6.32685H6.32671H6.32658H6.32645H6.32632H6.32619H6.32605H6.32592H6.32579H6.32566H6.32553H6.32539H6.32526H6.32513H6.325H6.32487H6.32474H6.32461H6.32448H6.32435H6.32422H6.32408H6.32395H6.32382H6.32369H6.32356H6.32343H6.3233H6.32318H6.32305H6.32292H6.32279H6.32266H6.32253H6.3224H6.32227H6.32214H6.32201H6.32188H6.32176H6.32163H6.3215H6.32137H6.32124H6.32112H6.32099H6.32086H6.32073H6.3206H6.32048H6.32035H6.32022H6.32009H6.31997H6.31984H6.31971H6.31959H6.31946H6.31933H6.31921H6.31908H6.31895H6.31883H6.3187H6.31857H6.31845H6.31832H6.31819H6.31807H6.31794H6.31782H6.31769H6.31757H6.31744H6.31731H6.31719H6.31706H6.31694H6.31681H6.31669H6.31656H6.31644H6.31631H6.31619H6.31606H6.31594H6.31581H6.31569H6.31556H6.31544H6.31531H6.31519H6.31507H6.31494H6.31482H6.31469H6.31457H6.31445H6.31432H6.3142H6.31407H6.31395H6.31383H6.3137H6.31358H6.31345H6.31333H6.31321H6.31308H6.31296H6.31284H6.31271H6.31259H6.31247H6.31234H6.31222H6.3121H6.31197H6.31185H6.31173H6.3116H6.31148H6.31136H6.31124H6.31111H6.31099H6.31087H6.31074H6.31062H6.3105H6.31038H6.31025H6.31013H6.31001H6.30989H6.30976H6.30964H6.30952H6.3094H6.30927H6.30915H6.30903H6.30891H6.30883C6.23782 8.67492 6.16545 8.6755 6.09931 8.68223C3.96881 8.59683 2.38049 6.92287 2.38049 4.86669C2.38049 2.7595 4.09829 1.04169 6.20549 1.04169C8.31244 1.04169 10.0301 2.7591 10.0305 4.86596C10.0226 6.93848 8.40429 8.61316 6.3555 8.68335H6.35547H6.35542H6.35537H6.35532H6.35527H6.35523H6.35518H6.35513H6.35508H6.35503H6.35498H6.35493H6.35488H6.35483H6.35479H6.35474H6.35469H6.35464H6.35459H6.35454H6.35449H6.35444H6.35439H6.35435H6.3543H6.35425H6.3542H6.35415H6.3541H6.35405H6.354H6.35396H6.35391H6.35386H6.35381H6.35376H6.35371H6.35366H6.35361H6.35357H6.35352H6.35347H6.35342H6.35337H6.35332H6.35327H6.35322H6.35317H6.35313H6.35308H6.35303H6.35298H6.35293H6.35288H6.35283H6.35278H6.35274H6.35269H6.35264H6.35259H6.35254H6.35249H6.35244H6.35239H6.35234H6.3523H6.35225H6.3522H6.35215H6.3521H6.35205H6.352H6.35195H6.3519H6.35186H6.35181H6.35176H6.35171H6.35166H6.35161H6.35156H6.35151H6.35147H6.35142H6.35137H6.35132H6.35127H6.35122H6.35117H6.35112H6.35107H6.35103H6.35098H6.35093H6.35088H6.35083H6.35078H6.35073H6.35068H6.35064H6.35059H6.35054H6.35049H6.35044H6.35039H6.35034H6.35029H6.35024H6.3502H6.35015H6.3501H6.35005H6.35H6.34995H6.3499H6.34985H6.34981H6.34976H6.34971H6.34966H6.34961H6.34956H6.34951H6.34946H6.34941H6.34937H6.34932H6.34927H6.34922H6.34917H6.34912H6.34907H6.34902H6.34898H6.34893H6.34888H6.34883H6.34878H6.34873H6.34868H6.34863H6.34858H6.34854H6.34849H6.34844H6.34839H6.34834H6.34829H6.34824H6.34819H6.34815H6.3481H6.34805H6.348H6.34795H6.3479H6.34785H6.3478H6.34775H6.34771H6.34766H6.34761H6.34756H6.34751H6.34746H6.34741H6.34736H6.34732H6.34727H6.34722H6.34717H6.34712H6.34707H6.34702H6.34697H6.34692H6.34688H6.34683H6.34678H6.34673H6.34668H6.34663H6.34658H6.34653H6.34649H6.34644H6.34639H6.34634H6.34629H6.34624H6.34619H6.34614H6.34609H6.34605H6.346H6.34595H6.3459H6.34585H6.3458H6.34575H6.3457H6.34565H6.34561H6.34556H6.34551H6.34546H6.34541H6.34536H6.34531H6.34526H6.34522H6.34517H6.34512H6.34507H6.34502H6.34497H6.34492H6.34487H6.34482H6.34478H6.34473H6.34468H6.34463H6.34458H6.34453H6.34448H6.34443H6.34439H6.34434H6.34429H6.34424H6.34419H6.34414H6.34409H6.34404H6.344H6.34395H6.3439H6.34385H6.3438H6.34375H6.3437H6.34365H6.3436H6.34356H6.34351H6.34346H6.34341H6.34336H6.34331H6.34326H6.34321H6.34316H6.34312H6.34307H6.34302H6.34297H6.34292H6.34287H6.34282H6.34277H6.34273H6.34268H6.34263H6.34258H6.34253H6.34248H6.34243H6.34238H6.34233H6.34229H6.34224H6.34219H6.34214H6.34209H6.34204H6.34199H6.34194H6.3419H6.34185H6.3418H6.34175H6.3417H6.34165H6.3416H6.34155H6.3415H6.34146H6.34141H6.34136H6.34131H6.34126H6.34121H6.34116H6.34111H6.34107H6.34102H6.34097H6.34092H6.34087H6.34082H6.34077H6.34072H6.34067H6.34063H6.34058H6.34053H6.34048H6.34043H6.34038H6.34033H6.34028H6.34024H6.34019H6.34014H6.34009H6.34004H6.33999H6.33994H6.33989H6.33984H6.3398H6.33975H6.3397H6.33965H6.3396H6.33955H6.3395H6.33945H6.33941H6.33936H6.33931H6.33926H6.33921H6.33916H6.33911H6.33906H6.33901H6.33897H6.33892H6.33887H6.33882ZM2.2448 11.7423C1.35668 12.3344 0.788818 13.1547 0.788818 14.0917C0.788818 15.023 1.36791 15.8425 2.24471 16.4243C3.38343 17.1876 4.8803 17.5521 6.34715 17.5521C7.81416 17.5521 9.31117 17.1876 10.4499 16.4241C11.3378 15.832 11.9055 15.0119 11.9055 14.075C11.9055 13.1435 11.3261 12.3238 10.449 11.742C9.31037 10.9831 7.8137 10.6209 6.34715 10.6209C4.88039 10.6209 3.38349 10.9832 2.2448 11.7423Z" fill="#292D32" stroke="#F1F3F4"/>
</svg>
