<svg width="21" height="21" viewBox="0 0 21 21" fill="none" xmlns="http://www.w3.org/2000/svg">
<path d="M16.2072 16.375C16.1771 16.375 16.1458 16.3627 16.1202 16.3371C16.0945 16.3114 16.0822 16.2802 16.0822 16.25V6.41669C16.0822 6.00962 16.0541 5.52314 15.716 5.18501C15.3816 4.85062 14.8766 4.79169 14.3489 4.79169H13.4822C12.9545 4.79169 12.4495 4.85062 12.1151 5.18501C11.777 5.52314 11.7489 6.00962 11.7489 6.41669V16.25C11.7489 16.2802 11.7366 16.3114 11.711 16.3371C11.6853 16.3627 11.654 16.375 11.6239 16.375C11.5938 16.375 11.5625 16.3627 11.5368 16.3371C11.5112 16.3114 11.4989 16.2802 11.4989 16.25V6.41669C11.4989 5.69646 11.6819 5.25713 11.9608 4.99086C12.2443 4.72028 12.7171 4.54169 13.4822 4.54169H14.3489C15.1188 4.54169 15.591 4.72057 15.873 4.99043C16.1507 5.25614 16.3322 5.69512 16.3322 6.41669V16.25C16.3322 16.2802 16.3199 16.3114 16.2943 16.3371C16.2687 16.3627 16.2374 16.375 16.2072 16.375Z" fill="#292D32" stroke="#F1F3F4"/>
<path d="M9.12386 16.375C9.09371 16.375 9.06243 16.3627 9.03679 16.3371C9.01115 16.3114 8.99886 16.2801 8.99886 16.25V10.5833C8.99886 10.1762 8.97076 9.68977 8.63262 9.35163C8.29824 9.01725 7.79322 8.95831 7.26553 8.95831H6.39886C5.87117 8.95831 5.36615 9.01725 5.03177 9.35163C4.69363 9.68977 4.66553 10.1762 4.66553 10.5833V16.25C4.66553 16.2801 4.65324 16.3114 4.6276 16.3371C4.60196 16.3627 4.57067 16.375 4.54053 16.375C4.51038 16.375 4.4791 16.3627 4.45346 16.3371C4.42781 16.3114 4.41553 16.2801 4.41553 16.25V10.5833C4.41553 9.86308 4.59849 9.42375 4.87743 9.15749C5.1609 8.88691 5.63376 8.70831 6.39886 8.70831H7.26553C8.03543 8.70831 8.50763 8.8872 8.78963 9.15705C9.06728 9.42276 9.24886 9.86175 9.24886 10.5833V16.25C9.24886 16.2801 9.23658 16.3114 9.21093 16.3371C9.18529 16.3627 9.15401 16.375 9.12386 16.375Z" fill="#292D32" stroke="#F1F3F4"/>
<path d="M18.4905 16.9583H1.82385C1.48219 16.9583 1.19885 16.675 1.19885 16.3333C1.19885 15.9916 1.47385 15.7083 1.82385 15.7083H18.4905C18.8322 15.7083 19.1155 15.9916 19.1155 16.3333C19.1155 16.675 18.8405 16.9583 18.4905 16.9583Z" fill="#F1F3F4"/>
</svg>
