<svg width="25" height="25" viewBox="0 0 25 25" fill="none" xmlns="http://www.w3.org/2000/svg">
<path d="M18.7588 17.5369L23.0418 21.8189L21.6268 23.2339L17.3448 18.9509C15.7515 20.2281 13.7698 20.9228 11.7278 20.9199C6.75978 20.9199 2.72778 16.8879 2.72778 11.9199C2.72778 6.95192 6.75978 2.91992 11.7278 2.91992C16.6958 2.91992 20.7278 6.95192 20.7278 11.9199C20.7307 13.9619 20.036 15.9437 18.7588 17.5369ZM16.7528 16.7949C18.0219 15.4898 18.7306 13.7404 18.7278 11.9199C18.7278 8.05292 15.5948 4.91992 11.7278 4.91992C7.86078 4.91992 4.72778 8.05292 4.72778 11.9199C4.72778 15.7869 7.86078 18.9199 11.7278 18.9199C13.5482 18.9228 15.2977 18.214 16.6028 16.9449L16.7528 16.7949Z" fill="#8B939D"/>
</svg>
