<svg width="21" height="21" viewBox="0 0 21 21" fill="none" xmlns="http://www.w3.org/2000/svg">
<path d="M10.9801 10.625C8.61456 10.625 6.68842 8.69888 6.68842 6.33335C6.68842 3.96783 8.61456 2.04169 10.9801 2.04169C13.3456 2.04169 15.2717 3.96783 15.2717 6.33335C15.2717 8.69888 13.3456 10.625 10.9801 10.625ZM10.9801 2.29169C8.75394 2.29169 6.93842 4.10721 6.93842 6.33335C6.93842 8.5595 8.75394 10.375 10.9801 10.375C13.2062 10.375 15.0217 8.5595 15.0217 6.33335C15.0217 4.10721 13.2062 2.29169 10.9801 2.29169Z" fill="#324054" stroke="#F1F3F4"/>
<path d="M18.1386 18.9583C18.1084 18.9583 18.0771 18.946 18.0515 18.9204C18.0258 18.8948 18.0136 18.8635 18.0136 18.8333C18.0136 15.5821 14.7444 13.125 10.9802 13.125C7.2161 13.125 3.9469 15.5821 3.9469 18.8333C3.9469 18.8635 3.93461 18.8948 3.90897 18.9204C3.88333 18.946 3.85205 18.9583 3.8219 18.9583C3.79175 18.9583 3.76047 18.946 3.73483 18.9204C3.70918 18.8948 3.6969 18.8635 3.6969 18.8333C3.6969 15.6343 6.87346 12.875 10.9802 12.875C15.087 12.875 18.2636 15.6343 18.2636 18.8333C18.2636 18.8635 18.2513 18.8948 18.2256 18.9204C18.2 18.946 18.1687 18.9583 18.1386 18.9583Z" fill="#324054" stroke="#F1F3F4"/>
</svg>
